<?xml version="1.0" standalone="no"?>
<!DOCTYPE svg PUBLIC "-//W3C//DTD SVG 20010904//EN"
 "http://www.w3.org/TR/2001/REC-SVG-20010904/DTD/svg10.dtd">
<svg version="1.0" xmlns="http://www.w3.org/2000/svg"
 width="3974.000000pt" height="3974.000000pt" viewBox="0 0 3974.000000 3974.000000"
 preserveAspectRatio="xMidYMid meet">
<metadata>
Created by potrace 1.11, written by Peter Selinger 2001-2013
</metadata>
<g transform="translate(0.000000,3974.000000) scale(0.100000,-0.100000)"
fill="#000000" stroke="none">
<path d="M11800 24432 l0 -6058 20 -110 c12 -60 23 -120 25 -134 11 -70 17
-109 25 -145 5 -22 11 -53 14 -70 10 -57 35 -200 51 -285 8 -47 18 -100 21
-119 3 -18 8 -43 10 -55 7 -37 36 -200 40 -231 3 -16 9 -55 15 -85 5 -30 19
-108 30 -173 21 -119 26 -137 92 -278 20 -42 67 -143 105 -225 105 -224 326
-702 355 -764 14 -30 47 -102 75 -160 27 -58 76 -163 110 -235 33 -71 124
-267 202 -435 79 -168 151 -323 160 -345 10 -22 42 -92 72 -155 30 -63 85
-182 123 -264 l69 -148 154 -127 c85 -69 195 -158 243 -197 49 -40 110 -89
136 -110 25 -22 74 -62 107 -89 34 -28 83 -68 110 -90 27 -22 77 -62 111 -90
33 -27 95 -77 136 -109 40 -33 76 -63 79 -66 4 -5 228 -188 623 -508 125 -102
131 -105 370 -213 133 -61 260 -118 282 -128 22 -10 182 -83 355 -161 173 -78
347 -157 387 -175 79 -37 98 -41 193 -50 36 -3 81 -8 100 -10 19 -2 64 -7 100
-10 36 -3 81 -8 100 -10 19 -2 64 -7 100 -10 36 -3 76 -8 90 -10 14 -2 63 -7
110 -11 47 -3 92 -7 100 -9 8 -1 51 -6 95 -9 44 -4 87 -9 95 -11 8 -2 55 -7
104 -10 50 -4 97 -8 105 -10 9 -1 52 -6 96 -9 44 -4 91 -9 105 -11 14 -2 57
-6 95 -10 39 -3 86 -8 105 -10 19 -2 62 -6 95 -10 33 -3 76 -7 95 -10 19 -2
67 -7 105 -10 39 -3 81 -8 95 -10 14 -2 61 -7 105 -10 44 -3 91 -8 105 -10 14
-2 57 -6 95 -10 39 -4 84 -8 100 -10 17 -2 82 -9 145 -15 63 -6 133 -13 155
-15 22 -3 247 -25 500 -51 463 -46 507 -48 665 -25 36 6 88 13 115 16 28 3 61
8 75 10 14 3 79 12 145 20 66 9 134 18 150 20 17 3 100 14 185 25 191 26 208
28 295 40 39 6 153 22 255 35 102 14 201 27 220 30 185 25 442 60 565 75 83
11 179 24 215 30 36 5 135 19 220 31 l155 21 1078 539 c593 296 1086 544 1096
551 10 7 49 41 87 74 38 34 146 128 239 209 94 81 185 161 204 178 19 17 73
64 120 105 47 40 113 98 146 126 33 29 157 137 275 240 l214 187 42 97 c23 53
177 419 342 812 165 393 465 1107 666 1587 l366 872 0 6526 0 6525 -2481 0
-2481 0 6 -612 c3 -337 9 -2750 12 -5363 5 -4714 5 -4751 -14 -4875 -11 -69
-43 -267 -71 -440 -27 -173 -52 -330 -56 -348 -3 -19 -17 -104 -30 -190 -25
-156 -35 -224 -94 -587 -17 -104 -33 -208 -36 -230 -28 -187 -18 -162 -301
-728 l-269 -539 -110 -72 c-60 -40 -249 -162 -420 -273 l-310 -201 -355 -102
c-195 -56 -484 -140 -642 -186 l-286 -83 -254 45 c-139 25 -264 47 -278 50
-14 2 -163 29 -331 59 -279 49 -322 60 -490 119 -101 35 -314 110 -473 165
-160 56 -293 104 -297 108 -8 10 -8 10 -324 596 l-257 479 -35 196 c-18 109
-36 213 -39 232 -3 19 -7 42 -9 50 -2 8 -6 29 -9 45 -9 52 -63 365 -141 815
-42 239 -82 473 -90 519 -13 73 -15 826 -15 5717 l0 5634 -2575 0 -2575 0 0
-6058z"/>
</g>
</svg>
